<?xml version="1.0" encoding="utf-8"?>
<!-- Generator: Adobe Illustrator 23.0.4, SVG Export Plug-In . SVG Version: 6.00 Build 0)  -->
<svg version="1.1" id="レイヤー_1" xmlns="http://www.w3.org/2000/svg" xmlns:xlink="http://www.w3.org/1999/xlink" x="0px"
	 y="0px" viewBox="0 0 1391 622" style="enable-background:new 0 0 1391 622;" xml:space="preserve">
<style type="text/css">
	.st0{fill:#FFFFFF;}
	.st1{fill:none;}
</style>
<g id="layer101">
	<g>
		<path class="st0" d="M287.1,445.3c-0.3-1.6-1-5-2.7-9.1c-0.4-0.9-1.8-4.2-4.4-8.1c-2-3-4-5.3-5.4-6.7c1.7-1.5,2.9-2.9,3.7-3.9
			c0.8-1.1,0.9-1.4,3.2-4.8c1.4-2,2-3,2.3-3.4c0.4-0.6,1.7-2.8,3-5.9c0.9-2,1.6-3.8,2.3-6.3c0.8-3.2,0.9-5.6,0.9-6.2
			s-0.1-1.9-0.2-4.5c-0.3-4.6-0.4-5.2-0.6-5.9c-0.2-0.5-0.8-2.2-2.4-4c-0.6-0.7-1.7-1.9-3.5-2.9c-0.4-0.2-2.3-1.1-5-1.1
			c-2.5,0-4.3,0.8-6.4,1.9c-2.9,1.4-4.9,3.1-6.7,4.6c-1.2,1-2.3,2.2-4.6,4.5c-2.4,2.5-3.6,3.7-5,5.5c-1,1.3-1.7,2.4-2.3,3.4
			c-0.4,0.7-1.2,1.1-2.1,1.1l-53.2-1c-1.9,0-3-2.2-1.8-3.8c0.2-0.3,0.5-0.7,0.8-1c0.9-1.2,1.8-2.2,3.8-4.3c3.4-3.5,5.3-5.6,8-8
			c2.3-2.1,2.7-2.2,6-5c4.2-3.5,4.2-3.8,11.6-10.5c6.5-5.8,7.6-6.7,8.7-9.2c1.6-3.6,1.7-6.7,1.7-7.8c0-1.3-0.3-6.2-3.9-10.5
			c-0.5-0.6-2.6-3.1-7.1-5c-5.7-2.5-10.6-1.9-19.4-1c-9.3,1-15.3,3-16.6,3.5c-0.9,0.3-4.1,1.5-8,3.5c-7,3.6-11.8,7.6-14,9.5
			c-1.9,1.7-5,5.2-11,12.3c-6.4,7.5-9.6,11.2-11,13.5c-2.4,3.9-6.2,11.1-7,12.7c-0.1,0.1-0.5,0.9-1,2c-0.5,1-0.9,1.8-1,1.9
			c-0.7,1.3-1.4,3.3-1.7,4.5c-0.1,0.4-0.3,0.9-0.4,1.5c-0.4,0-1,0.1-1.7,0.2c-5.6,0.6-9.4,0.7-12.1,0.9c-7.5,0.6-13.7,1.1-20.5,2
			c-1.6,0.2-3.8,0.5-6.5,1c-2.6,0.5-5.5,1-9,2c-4.4,1.3-7.5,2.1-11,4.4c-1.3,0.8-3.7,2.4-6,5.1c-1.3,1.5-6,7.1-5.5,15
			c0.3,5.4,2.9,9.1,4.4,11.2c3.8,5.4,8.6,7.9,10.3,8.8c2.3,1.1,4.3,1.7,6.8,2.5c3.3,1,6.2,1.6,9.1,2c9,1.4,19,1.9,22.4,2
			c5,0,10.1,0.1,15.3,0.3c1.4,0,2.7,0.1,4,0.1c0.6,1.5,1.4,3.5,2.4,5.8c1.2,2.8,2,4.5,3.1,6.7c2.1,3.9,4.1,6.8,5.4,8.6
			c0.8,1.1,2,2.7,4.3,5.4c5.9,7.1,11,12.2,12.3,13.5c4.2,4.3,6.4,6.4,9.3,8.6c3.8,2.9,6.9,4.6,10.4,6.5c1.8,1,7.5,4,15.6,7.1
			c5,1.9,7.5,2.8,11.2,3.6c6.2,1.3,11.3,2.3,16.9,0.1c1.5-0.6,7.8-3,10.4-9.4c2.9-7-0.5-13.8-1.7-16.2c-1.1-2.2-2.3-3.8-7.3-8.7
			c-5-5-9.2-8.8-18.1-16.9c-3.3-3-7-6.3-11.4-11.3c-1.4-1.6-2.5-2.9-3.2-3.8c19.4,0,38.8,0.1,58.1,0.1c0.9,0.6,2.2,1.6,3.6,2.8
			c1.4,1.3,2.3,2.4,4.2,4.7c5,6.2,4.9,6.2,5.7,7c2.2,2.1,3.7,3.7,6.3,4.5c0.9,0.3,4.4,1.3,8.1-0.3c4.4-2,6-6.4,6.7-8.4
			C288.8,454.4,288,450.3,287.1,445.3z"/>
		<path class="st0" d="M1305.1,393.8c-336.8-0.6-673.5-1.1-1010.3-1.7c-1.3,0-2.3,1-2.4,2.3c-0.3,15.9-0.6,31.9-0.9,47.8
			c0,1.3,1,2.4,2.4,2.4c337.2-0.3,674.3-0.5,1011.5-0.8c1.3,0,2.4-1.1,2.4-2.4c-0.1-15.1-0.2-30.2-0.3-45.3
			C1307.4,394.8,1306.4,393.8,1305.1,393.8z"/>
	</g>
	<path class="st0" d="M99.3,298.4c-2.3-3-2.2-6.6-2.1-8.3c0.7-15.1,7.9-85.5,7.9-85.5c1-9.2,6.7-71.4,9-87.7
		c0.1-0.8,0.4-2.5,1.6-4.2c3.7-4.9,11.3-2.5,26.4-2.5c17.1,0,21.4,0.1,24.2,1.2c1.1,0.5,2,1.1,2.3,1.3c0.1,0,0.1,0.1,0.1,0.1
		c2.1,1.8,3,4.2,3.3,5.6c7.1,24.8,14.1,49.6,21.2,74.3c0.7,2.5,4.4,2.2,4.6-0.4c2.4-24,4.8-48,7.2-72c0-0.7,0.1-5,3.6-7.9
		c2-1.6,4.1-2.1,5.2-2.2c0.1,0,0.2,0,0.3,0c4.2,0,8.3-0.1,12.5-0.1c6.8,0,13.6,0.1,20.3,0.1c0.2,0,0.3,0,0.5-0.1
		c2.8-0.6,7-1,9.1,1.3c1.5,1.6,1.4,3.8,1.3,4.8c-0.6,11.3-11.4,83.3-13.1,97c0,0-10.4,81.2-14.1,84c-1.2,0.9-2.5,1.7-2.5,1.7
		c-0.5,0.3-1.2,0.8-2.1,1.2c0,0-1.5,0.8-3.3,1.4c-2.1,0.7-11.1,1.3-23.3,0.6c-2.1-0.2-5.4-0.8-8.9-2.8l0,0c0,0-2.1-1-3.8-2.8
		c-1.3-1.3-3.4-4.9-4.3-10c0-0.1,0-0.1,0-0.2c-6.5-23.1-13.1-46.2-19.6-69.3c-0.7-2.5-4.3-2.2-4.6,0.4c-2.8,24.3-5.6,48.7-8.4,73
		c0,1.1-0.2,3.2-1.3,5.4c-0.4,0.8-1,1.9-2.3,2.8c-2.2,1.7-4.7,1.6-5.7,1.6c-0.1,0-0.1,0-0.2,0c-12.6,0.1-25.2,0.2-37.8,0.3
		c-0.5,0-1.1-0.2-1.5-0.5C100.4,299.6,99.8,299.1,99.3,298.4z"/>
	<path class="st0" d="M259.7,296.6c-1.9-2.2-2.2-5-1.5-15c0.7-9.6,1-14.4,2.1-19.6c0.8-3.8,1.2-4.9,5.4-18.2c3.9-12.3,5.8-18.5,7-23
		c1.3-5.1,3.4-13,4.4-21c1.2-9.6,0.4-16.4-5.9-59.1c-0.7-4.8-0.3-9.7-1.2-14.4c-0.8-4.1-2.1-9.4,0.7-13.2c0,0,0.4-0.6,0.9-1.1
		c1.9-1.6,7-1.7,67.5-1.7c3.2,0,57.5,0.3,65.5,1c2.4,0.2,4.8,0.9,7.1,2.2c1.1,0.7,1.9,1.4,2.5,1.9c0.1,0.1,0.2,0.3,0.3,0.4
		c0.4,0.7,1,1.7,1.6,2.9c4.2,8.7,2.1,16.6-0.1,31.6c-1.6,11-0.8,9.1-2.5,19.7c-2.8,18.4-5.1,24.2-9,25.2c-1,0.3-1.9,0.2-2.6,0.1
		c-0.2,0-0.3-0.1-0.5-0.1h-16.8c-16.4-0.1-22-0.4-23.3-1.4c-0.6-0.5-2.1-2-1.8-9.5c0.1-1.5,0.2-4.6,2-13.6c0.7-3.5,1.3-6.4,2-9.4
		c0.8-3.4,1.4-6.3,1.9-8.4c0-0.2,0.1-0.4,0.1-0.5v-0.8c0-1.3-1.1-2.4-2.4-2.4H346h-16.8c-1.4,0-2.5,1.2-2.3,2.7
		c0.9,6.6,1.6,13.5,2.1,20.7c0.8,10.6,1.2,20.7,1.2,30.1c0,0.1,0,0.1,0,0.2c-0.5,6.5-1.9,15.6-6.2,25.9c-0.3,0.6-1,2.2-2.4,5.5
		c-7.7,17.3-10.7,23-8.2,27.2c0.3,0.5,0.8,1.2,1.7,1.9c0.4,0.3,0.9,0.5,1.4,0.5l62-0.4c0.4,0,3.5,0.2,5.5,2.8
		c1.3,1.8,1.4,3.7,1.4,4.3l0.1,24.3c0,0.3-0.1,0.7-0.2,1c-0.4,0.8-1.1,2.1-2.6,3.2c-2.3,1.7-4.9,1.6-5.7,1.5c-0.1,0-0.1,0-0.2,0
		l-108-0.3C266.4,300.1,262.2,299.6,259.7,296.6z"/>
	<path class="st0" d="M416.5,294.4c-1-2-0.9-3.9-0.7-4.8c10.6-97,18.3-167.8,18.9-172.7c0.1-0.7,0.4-2.6,1.7-4.1
		c2.6-3.1,6.7-2.7,7.1-2.7c14.2,0.5,28.5,1.1,42.7,1.6c1,0.1,1.5,0.6,1.8,0.8c1,1,1,2.6,0.9,4.2c0,0.5,0,0.9-0.1,1.2
		c-6.7,59.4-13.4,118.7-20.1,178.1c-0.1,0.3-0.2,0.8-0.5,1.3c-1.1,2-3.5,2.5-4.6,2.8c-0.6,0.1-1.4,0.3-2.4,0.3
		c-18.1-0.3-31.4-0.6-35.7-0.6c-0.6,0-2.4,0-4.5-0.9C420.2,298.2,417.8,297.1,416.5,294.4z"/>
	<path class="st0" d="M506,300.3c-2.4-0.1-7.6-0.4-11.5-4c-3.7-3.4-4.7-8.4-5.6-13.3c-1.3-7.1-0.8-12.8-0.7-13.3
		c0,0,12.5-137.4,16.1-149.1c0.7-2.3,2-4.3,2-4.3c0.2-0.4,1.4-2.3,2.9-3.5c3.5-2.8,8-2.3,9.6-2c0.1,0,0.3,0,0.4,0
		c19.5-0.2,38.9-0.5,58.4-0.7h52.9c0.2,0,0.4,0,0.6,0.1c2,0.5,5.3,1.7,8.3,4.5c0,0,1.6,1.6,2.9,3.5c3.7,6,1.8,18.3,0.9,26.2
		c-0.8,7.8-2.5,29.1-5.3,34.9c-1.2,2.5-3,4-3.7,4.5c-0.2,0.2-0.5,0.3-0.7,0.4c-0.4,0.1-1,0.3-1.6,0.5c-11.6,3.2-16.1,1-36.1,0.4
		c-4.3-0.1-5.8-0.6-7-2c-2.7-3.1-0.3-8.4,1.3-17.1c0.6-3.6,1.3-8.5,1.3-14.5c0-1.3-1.1-2.4-2.4-2.4h-17.4h-17.7
		c-1.2,0-2.2,0.9-2.3,2.1c-1.6,11.7-3.1,23.4-4.7,35.1c-3.1,29.8-5.2,51.6-5.7,57.6c-0.2,2.3-0.5,6.1-0.5,10.9c0,2.4,0,4.4,0.1,5.8
		c-0.1,0.6,0.1,1.1,0.2,1.3c0.5,0.9,1.7,1.4,3.1,1.2c13.7-0.4,22.1-0.4,24.9,0c0.4,0.1,1.6,0.3,2.9-0.2c0.6-0.3,2-1,3.3-3.4
		c1.8-3.6,1.2-6.7,1.5-14c0.2-4.8,0.4-4.8,0.7-11c0.1-2.8,0.2-4.8,0.2-7.5c-0.1-4.9-0.1-7.4-0.5-10.6c-1.2-10.1-4.4-14.4-1.9-17.1
		c1.5-1.6,3.6-1.7,7.5-1.9c10.4-0.4,15.6-0.6,20.1-0.3c21.2,1.7,24.9-1.2,27.8,2.5c1.9,2.4,1.3,4.8-0.6,20.3
		c-0.8,6.2-1.4,12.5-2.2,18.7c-2.2,17.8-2.2,27.3-5.7,43.4c-1.1,4.9-2.6,11.1-7.9,14.9c-3.6,2.6-7.5,3-9.2,3.2
		c-16.5,1.5-40.6,0.1-41.2,0.1C546.5,299.2,528.7,301.2,506,300.3z"/>
	<path class="st0" d="M811.8,299c-3.4-2.8-4.7-6.3-5.2-7.6c-1.2-3.5-1.1-6.5-1-8.2l17.1-158.8c0-0.1,0-0.2,0-0.4
		c-0.1-1.3,0-3.3,1.1-5.5c1.6-3.3,4.4-4.7,5.7-5.3c2.1-1.1,4.1-1.4,5.3-1.5c0.1,0,0.1,0,0.2,0c38.9-0.5,77.7-1.1,116.6-1.6
		c0.1,0,0.3,0,0.4,0c1.4,0.3,4.3,1,7,3.4c3.5,3.1,4.4,7,4.7,8.4c0,0.1,0,0.2,0,0.4c0.1,6.2,0.1,11.3,0,15.2
		c-0.2,11.3-0.7,14.2-1,16.1c-1.1,6-2.9,10.4-4,13c-2.6,6.2-4.2,7.8-8.9,18c-1,2.3-2.3,5.1-2.8,9c-0.3,2.7-0.2,4.9,0,7.2
		c0.2,2.4,0.5,4.6,1.7,10.3c0.8,3.8,1.2,5.7,1.9,8.6c4.1,16.9,0,51.9-3.3,66.8c-0.5,2.4-1.5,6.3-4.7,9.2c-2.5,2.3-5.9,3.3-7.6,3.9
		c-1.8,0.6-3.4,0.9-4.7,1.1c0,0-0.7,0.1-1.5,0.2c-3.2,0.3-83.2,1.3-106.8,1.6C820.3,302.7,815.9,302.3,811.8,299z M903.4,242.3
		c-0.1-8.8-1.6-11.5-3.5-25.6c-2-14.5-2.9-21.7-1.8-27.9c0.9-5,3.1-11.7,7.6-25c0.5-1.5,2-5.9,2.4-12l0,0c0.1-1.3-1-2.5-2.3-2.5
		h-30.9c-1.2,0-2.2,0.9-2.4,2.1c-3.5,36.4-7,72.9-10.5,109.3c-0.1,1.4,1,2.6,2.4,2.6H899c1.1,0,2-0.7,2.3-1.8
		C902.2,256.7,903.4,250.1,903.4,242.3z"/>
	<path class="st0" d="M980.3,296.4c-4.4-3.4-5.7-8.2-7.1-13.3c-0.8-2.9-1.7-7.5-1.5-13.3c0-0.1,0-0.1,0-0.2
		c3.8-41.2,7.6-82.5,11.5-123.7c0.1-1.4,0.3-3.3,0.6-5.6c1.1-7.4,1.8-12,4.3-16.3c5.4-9,15.8-11.6,18-12.1c3.8-0.9,7.1-1,9.3-0.8
		c0.1,0,0.1,0,0.1,0c47.3-0.7,81.9-0.5,88.4,0.4c1.2,0.2,4.2,0.6,6.9,2.8c3.1,2.6,4.1,6.3,4.4,7.5c0.8,3.1,0.5,5.7,0.5,6.3
		c-0.6,5.9-5,56.6-11.2,126.6c-0.4,2.8-0.9,6.9-1.8,11.9c-1,5.6-1.5,8.3-2.2,10.7c-2.4,7.6-7.7,13.7-12.5,17.1
		c-8.4,6-18,5.8-23.2,5.8c-25.1-0.1-50.2-0.2-75.3-0.4c-0.1,0-0.1,0-0.2,0C987.1,299.6,983.5,299,980.3,296.4z M1062.2,149.2
		c-9.2,0-18.4-0.1-27.5-0.1c-0.4,0-2.4,0-4,1.6c-1.2,1.2-1.5,2.6-1.6,3.1c-5.8,59.9-10,103.7-10.2,106c0,0.5,0,1.3,0.4,1.9
		c0.2,0.4,1,1.2,3.1,1.5c2.7,0.3,14.4,0.5,30.2,0.4c0.3,0,1.2-0.2,2-0.9c0.9-0.8,1.1-1.8,1.1-2.1c6-59.6,9.8-103.3,10.3-106.5
		c0-0.2,0.3-2.1-1.1-3.5C1064,149.3,1062.5,149.2,1062.2,149.2z"/>
	<path class="st0" d="M1121.4,298.8c-1.4-1.9-1-4-0.8-4.6c0-0.1,0.1-0.3,0.1-0.4c5.6-59.7,11.3-119.3,16.9-179
		c0.1-0.6,0.2-1,0.4-1.4c0.9-1.7,2.9-2.2,3.5-2.4c0.7-0.2,1.2-0.2,1.6-0.2c40.3-0.2,80.6-0.4,121-0.6c0.1,0,0.1,0,0.2,0
		c1.5-0.1,6-0.3,9.9,2.7c2.5,2,3.6,4.4,4.3,6c2.4,5.5,1.5,10.8,0.9,13.3c0,0.1,0,0.2-0.1,0.3c-6.3,16.9-12.5,33.8-18.8,50.6
		c0,0.1-0.1,0.2-0.1,0.3c-1.1,1.9-2.3,4.8-2.5,8.4c-0.1,2,0.2,3.3,0.6,6.2c0.5,3.5,0.8,7.1,1.2,10.7c4.7,37.3,6,59.4,6,59.4
		c0.3,5.5,0.7,13.7,0.8,23.8c0,0.1,0,0.1,0,0.2c-0.1,0.8-0.4,3.8-3,6c-2.2,1.9-4.7,2-5.4,2h-30.9h-0.1c-1.7,0.1-4.5,0.1-7.5-1.4
		c-1.2-0.6-2.8-1.4-4.1-3.3c-1.7-2.4-1.8-4.9-1.8-5.9c-4.5-56.1-7.5-97.2-7.4-98.1c0.2-1.2,0.5-2.3,0.5-2.3l0,0
		c0.4-1.8,0.9-3.3,1.1-4c0-0.1,0.1-0.1,0.1-0.2c1.6-3.6,2.9-6.6,3.8-8.7c5.9-14.2,7.3-20.5,8-24.1c0-0.1,0-0.2,0.1-0.3
		c0.3-1.5-0.9-2.8-2.3-2.8l-28.6,0.2c-1.2,0-2.2,0.9-2.3,2.1c-4.6,45.8-9.2,91.6-13.8,137.4c-0.1,0.6-0.2,1.6-0.5,2.8
		c-0.8,3.4-1.7,7.6-4.3,8.4c-0.4,0.1-0.7,0.1-0.8,0.1c-13.4,0.3-26.7,0.5-40.1,0.8C1124.8,301.2,1122.7,300.5,1121.4,298.8z"/>
</g>
<line class="st1" x1="330.4" y1="166.1" x2="330.4" y2="166.1"/>
<line class="st1" x1="332.1" y1="193.3" x2="332.1" y2="193.3"/>
<line class="st1" x1="331.5" y1="179.2" x2="331.5" y2="179.2"/>
<path d="M558.6,259.9"/>
<path d="M582.4,257.1"/>
<path d="M586,264.9"/>
<path d="M580.9,265.5"/>
<path d="M588.4,265.7"/>
<path class="st0" d="M654.3,299.9c-1.1,0-2.8-0.1-4.5-0.9c-0.6-0.3-4-1.9-5-5.6c-0.5-1.7-0.3-3.2-0.1-4
	c5.9-56.2,11.8-112.5,17.8-168.7c-0.1-1-0.3-3.9,1.6-6.1c0.9-1.1,2-1.6,3-2.1c2.2-1,4.2-1.3,5.4-1.4c12.6-0.2,25.1-0.3,37.7-0.5
	c0.2,0,2-0.3,3.5,1c1.4,1.3,1.4,2.9,1.4,3.2c-2.2,24.5-4.4,48.9-6.7,73.4c6.2,0,12.3,0,18.5,0s12.3,0,18.5,0
	c2.7-23.9,5.3-47.8,8-71.8c0-0.4,0-1.7,0.9-2.6c0.4-0.4,0.9-0.7,1.2-0.8c1.3-0.6,2.5-0.5,2.7-0.5c22.2-0.5,38.4-0.8,40.4-0.7
	c0.4,0,1.3,0.1,2.2,0.6c0.3,0.2,1.2,0.8,1.5,1.9c0.2,0.5,0.1,1,0.1,1.1c-0.1,1.4-6.5,76.1-15.2,179c-0.5,1.1-1.5,2.9-3.4,4.5
	c-0.9,0.7-2.5,2.1-4.9,2.6c-1,0.2-1.8,0.2-2.4,0.2c-11.5,0-22.9,0-34.4-0.1c-1,0.1-1.7-0.1-2.2-0.3c-3.3-1.1-4.6-4.7-4.7-6
	c-0.1-1,0-2.1,0-2.1c0-0.2,0-0.4,0.1-0.5c2-22.8,4-45.7,6-68.5c-12.1-0.5-24.3-1-36.4-1.5c-2.5,22.8-5,45.7-7.4,68.5
	c-0.1,1.2-0.5,2.7-1.4,4.4c-1.3,2.3-3,3.5-3.9,4.1c-1.5,1-2.9,1.6-3.8,1.9C677.2,301.1,665.8,300.5,654.3,299.9z"/>
<path d="M696.9,301.9"/>
<path d="M699.4,304.4"/>
<path d="M714.1,275"/>
<path d="M494,115"/>
<path d="M428.6,301.8"/>
<path d="M736.8,300"/>
<path d="M805.6,115.7"/>
<path d="M753.8,112.7"/>
<path d="M761.1,105.1"/>
<path d="M655.9,305.5"/>
<path d="M961.7,193.1"/>
<path d="M1119.9,100"/>
<path d="M1049,252.8"/>
<path d="M1101.5,314.5"/>
<path d="M1096.9,303.5"/>
<path d="M1122.3,115.3"/>
<path d="M999.6,310.5"/>
<path d="M1147.3,110.4"/>
<path d="M284.6,414.1"/>
<path d="M240.9,331.5"/>
<path d="M274.3,522"/>
<path d="M289.5,473.9"/>
<path d="M294.5,469.8"/>
<path d="M308.7,484"/>
</svg>
